<svg xmlns="http://www.w3.org/2000/svg" viewBox="0 0 64 64" width="64" height="64">
  <defs>
    <linearGradient id="fireGradient" x1="0%" y1="0%" x2="0%" y2="100%">
      <stop offset="0%" style="stop-color:#ff4757;stop-opacity:1" />
      <stop offset="50%" style="stop-color:#ff6b7a;stop-opacity:1" />
      <stop offset="100%" style="stop-color:#ffa502;stop-opacity:1" />
    </linearGradient>
    <linearGradient id="waterGradient" x1="0%" y1="0%" x2="0%" y2="100%">
      <stop offset="0%" style="stop-color:#00d4ff;stop-opacity:1" />
      <stop offset="100%" style="stop-color:#0099cc;stop-opacity:1" />
    </linearGradient>
  </defs>
  
  <!-- Background circle -->
  <circle cx="32" cy="32" r="30" fill="#0a0e27" stroke="url(#waterGradient)" stroke-width="2"/>
  
  <!-- Fire icon -->
  <path d="M 32 20 Q 28 18 26 22 Q 24 26 26 30 Q 28 34 32 40 Q 36 34 38 30 Q 40 26 38 22 Q 36 18 32 20 Z" 
        fill="url(#fireGradient)" opacity="0.9"/>
  <path d="M 32 22 Q 30 20 28 23 Q 27 26 28 29 Q 30 32 32 36 Q 34 32 36 29 Q 37 26 36 23 Q 34 20 32 22 Z" 
        fill="#ffa502" opacity="0.8"/>
  
  <!-- Water drop/suppression symbol -->
  <circle cx="32" cy="45" r="4" fill="url(#waterGradient)"/>
  <path d="M 32 49 Q 30 52 28 50 Q 30 48 32 49 Z" fill="url(#waterGradient)"/>
  
  <!-- Shield/protection outline -->
  <path d="M 20 25 L 32 18 L 44 25 L 44 35 Q 44 40 40 42 Q 36 44 32 44 Q 28 44 24 42 Q 20 40 20 35 Z" 
        fill="none" stroke="url(#waterGradient)" stroke-width="1.5" opacity="0.6"/>
</svg>


